<svg width="20" height="20" viewBox="0 0 40 40" xmlns="http://www.w3.org/2000/svg" fill="none">
  <circle cx="20" cy="20" r="16" fill="#fff"/>
  <circle cx="20" cy="20" r="14" fill="#e6f2ff"/>
  <!-- red bands -->
  <path d="M20 4a16 16 0 0 1 10.5 4.2L26.2 12.5A14 14 0 0 0 20 8Z" fill="#ff6b6b"/>
  <path d="M36 20a16 16 0 0 1-4.2 10.5L27.5 26.2A14 14 0 0 0 32 20Z" fill="#ff6b6b"/>
  <path d="M20 36A16 16 0 0 1 9.5 31.8L13.8 27.5A14 14 0 0 0 20 32Z" fill="#ff6b6b"/>
  <path d="M4 20A16 16 0 0 1 8.2 9.5L12.5 13.8A14 14 0 0 0 8 20Z" fill="#ff6b6b"/>
  <!-- minimal maximize: square outline -->
  <rect x="13.5" y="13.5" width="13" height="13" rx="2" stroke="#0d0d0d" stroke-width="2.2" fill="none"/>
</svg>

